REM DIRINDEX 1\2,1\4,1\3\5,1\3\6,1\3\7
REM DIRNAME cjc082,folder01,folder02,folder03,folder04,folder05,folder06
TITLE ""
FILE "CD3Track35.mp3" MP3
  TRACK 01 AUDIO
    TITLE "0:"
    INDEX 01 00:00:00
  TRACK 02 AUDIO
    TITLE "4:cjc082_2986"
    INDEX 01 00:00:27
  TRACK 03 AUDIO
    TITLE "0:"
    INDEX 01 00:04:52
  TRACK 04 AUDIO
    TITLE "5:cjc082_2987"
    INDEX 01 00:05:24
  TRACK 05 AUDIO
    TITLE "0:"
    INDEX 01 00:06:24
  TRACK 06 AUDIO
    TITLE "6:cjc082_2988"
    INDEX 01 00:07:02
  TRACK 07 AUDIO
    TITLE "0:"
    INDEX 01 00:08:32
  TRACK 08 AUDIO
    TITLE "5:cjc082_2989"
    INDEX 01 00:09:02
  TRACK 09 AUDIO
    TITLE "0:"
    INDEX 01 00:10:23
  TRACK 10 AUDIO
    TITLE "6:cjc082_2990"
    INDEX 01 00:11:01
  TRACK 11 AUDIO
    TITLE "0:"
    INDEX 01 00:12:07
  TRACK 12 AUDIO
    TITLE "5:cjc082_2991"
    INDEX 01 00:12:56
  TRACK 13 AUDIO
    TITLE "0:"
    INDEX 01 00:14:15
  TRACK 14 AUDIO
    TITLE "6:cjc082_2992"
    INDEX 01 00:14:62
  TRACK 15 AUDIO
    TITLE "0:"
    INDEX 01 00:16:02
  TRACK 16 AUDIO
    TITLE "5:cjc082_2993"
    INDEX 01 00:16:48
  TRACK 17 AUDIO
    TITLE "0:"
    INDEX 01 00:17:57
  TRACK 18 AUDIO
    TITLE "6:cjc082_2994"
    INDEX 01 00:18:33
  TRACK 19 AUDIO
    TITLE "0:"
    INDEX 01 00:19:48
  TRACK 20 AUDIO
    TITLE "5:cjc082_2995"
    INDEX 01 00:20:22
  TRACK 21 AUDIO
    TITLE "0:"
    INDEX 01 00:21:45
  TRACK 22 AUDIO
    TITLE "6:cjc082_2996"
    INDEX 01 00:22:23
  TRACK 23 AUDIO
    TITLE "0:"
    INDEX 01 00:25:19
  TRACK 24 AUDIO
    TITLE "5:cjc082_2997"
    INDEX 01 00:25:66
  TRACK 25 AUDIO
    TITLE "0:"
    INDEX 01 00:27:08
  TRACK 26 AUDIO
    TITLE "6:cjc082_2998"
    INDEX 01 00:27:57
  TRACK 27 AUDIO
    TITLE "0:"
    INDEX 01 00:30:38
  TRACK 28 AUDIO
    TITLE "5:cjc082_2999"
    INDEX 01 00:31:10
  TRACK 29 AUDIO
    TITLE "0:"
    INDEX 01 00:32:23
  TRACK 30 AUDIO
    TITLE "6:cjc082_3000"
    INDEX 01 00:32:74
  TRACK 31 AUDIO
    TITLE "0:"
    INDEX 01 00:35:06
  TRACK 32 AUDIO
    TITLE "5:cjc082_3001"
    INDEX 01 00:35:53
  TRACK 33 AUDIO
    TITLE "0:"
    INDEX 01 00:37:05
  TRACK 34 AUDIO
    TITLE "6:cjc082_3002"
    INDEX 01 00:37:54
  TRACK 35 AUDIO
    TITLE "0:"
    INDEX 01 00:39:51
  TRACK 36 AUDIO
    TITLE "5:cjc082_3003"
    INDEX 01 00:40:24
  TRACK 37 AUDIO
    TITLE "0:"
    INDEX 01 00:41:36
  TRACK 38 AUDIO
    TITLE "6:cjc082_3004"
    INDEX 01 00:42:06
  TRACK 39 AUDIO
    TITLE "0:"
    INDEX 01 00:46:21
  TRACK 40 AUDIO
    TITLE "5:cjc082_3005"
    INDEX 01 00:46:66
  TRACK 41 AUDIO
    TITLE "0:"
    INDEX 01 00:48:02
  TRACK 42 AUDIO
    TITLE "6:cjc082_3006"
    INDEX 01 00:48:55
  TRACK 43 AUDIO
    TITLE "0:"
    INDEX 01 00:50:15
  TRACK 44 AUDIO
    TITLE "5:cjc082_3007"
    INDEX 01 00:50:62
  TRACK 45 AUDIO
    TITLE "0:"
    INDEX 01 00:52:06
  TRACK 46 AUDIO
    TITLE "6:cjc082_3008"
    INDEX 01 00:52:49
  TRACK 47 AUDIO
    TITLE "0:"
    INDEX 01 00:54:46
  TRACK 48 AUDIO
    TITLE "5:cjc082_3009"
    INDEX 01 00:55:18
  TRACK 49 AUDIO
    TITLE "0:"
    INDEX 01 00:56:63
  TRACK 50 AUDIO
    TITLE "6:cjc082_3010"
    INDEX 01 00:57:37
  TRACK 51 AUDIO
    TITLE "0:"
    INDEX 01 00:58:66
  TRACK 52 AUDIO
    TITLE "5:cjc082_3011"
    INDEX 01 00:59:38
  TRACK 53 AUDIO
    TITLE "0:"
    INDEX 01 01:01:25
  TRACK 54 AUDIO
    TITLE "6:cjc082_3012"
    INDEX 01 01:01:74
  TRACK 55 AUDIO
    TITLE "0:"
    INDEX 01 01:04:43
  TRACK 56 AUDIO
    TITLE "5:cjc082_3013"
    INDEX 01 01:05:19
  TRACK 57 AUDIO
    TITLE "0:"
    INDEX 01 01:06:24
  TRACK 58 AUDIO
    TITLE "6:cjc082_3014"
    INDEX 01 01:07:06
  TRACK 59 AUDIO
    TITLE "0:"
    INDEX 01 01:08:74
  TRACK 60 AUDIO
    TITLE "5:cjc082_3015"
    INDEX 01 01:09:50
  TRACK 61 AUDIO
    TITLE "0:"
    INDEX 01 01:10:67
  TRACK 62 AUDIO
    TITLE "6:cjc082_3016"
    INDEX 01 01:11:39
  TRACK 63 AUDIO
    TITLE "0:"
    INDEX 01 01:12:46
  TRACK 64 AUDIO
    TITLE "5:cjc082_3017"
    INDEX 01 01:13:20
  TRACK 65 AUDIO
    TITLE "0:"
    INDEX 01 01:14:29
  TRACK 66 AUDIO
    TITLE "6:cjc082_3018"
    INDEX 01 01:15:07
  TRACK 67 AUDIO
    TITLE "0:"
    INDEX 01 01:16:48
  TRACK 68 AUDIO
    TITLE "5:cjc082_3019"
    INDEX 01 01:17:20
  TRACK 69 AUDIO
    TITLE "0:"
    INDEX 01 01:18:33
  TRACK 70 AUDIO
    TITLE "6:cjc082_3020"
    INDEX 01 01:19:07
  TRACK 71 AUDIO
    TITLE "0:"
    INDEX 01 01:20:51
  TRACK 72 AUDIO
    TITLE "5:cjc082_3021"
    INDEX 01 01:21:23
  TRACK 73 AUDIO
    TITLE "0:"
    INDEX 01 01:23:20
  TRACK 74 AUDIO
    TITLE "6:cjc082_3022"
    INDEX 01 01:23:67
  TRACK 75 AUDIO
    TITLE "0:"
    INDEX 01 01:25:37
  TRACK 76 AUDIO
    TITLE "5:cjc082_3023"
    INDEX 01 01:26:09
  TRACK 77 AUDIO
    TITLE "0:"
    INDEX 01 01:27:10
  TRACK 78 AUDIO
    TITLE "6:cjc082_3024"
    INDEX 01 01:27:59
  TRACK 79 AUDIO
    TITLE "0:"
    INDEX 01 01:30:32
  TRACK 80 AUDIO
    TITLE "7:cjc082_3025"
    INDEX 01 01:31:71
  TRACK 81 AUDIO
    TITLE "0:"
    INDEX 01 01:42:63
